<?xml version="1.0" encoding="utf-8"?>
<!-- Generator: Adobe Illustrator 21.0.2, SVG Export Plug-In . SVG Version: 6.00 Build 0)  -->
<svg version="1.1" id="Layer_1" xmlns="http://www.w3.org/2000/svg" xmlns:xlink="http://www.w3.org/1999/xlink" x="0px" y="0px"
	 viewBox="0 0 50 46" style="enable-background:new 0 0 50 46;" xml:space="preserve">
<style type="text/css">
	.st0{fill:#F58220;}
	.st1{fill:#FFFFFF;}
</style>
<path class="st0" d="M49.9,19.8c0,6.1,0,12.2,0,18.3c0,0.5-0.2,0.8-0.6,1c-1.3,0.8-2.5,1.5-3.8,2.3c-1.5,0.9-2.9,1.7-4.4,2.6
	c-0.8,0.5-1.7,1-2.5,1.5c-0.4,0.2-0.8,0.2-1.2,0c-3.8-1.9-7.6-3.8-11.4-5.7c-0.3-0.1-0.6-0.3-0.9-0.4c-0.1,0-0.1,0-0.2,0
	c-0.8,0.4-1.5,0.8-2.3,1.3c-0.4,0.2-0.8,0.4-1.1,0.6c-0.9,0.5-1.8,1-2.7,1.5c-0.9,0.5-1.8,1-2.7,1.5c-0.8,0.4-1.6,0.9-2.4,1.3
	c-0.4,0.2-0.8,0.2-1.2,0c-0.4-0.2-0.9-0.5-1.3-0.7c-0.8-0.4-1.6-0.9-2.5-1.3c-0.5-0.3-1.1-0.6-1.6-0.9c-0.8-0.4-1.6-0.9-2.5-1.3
	c-0.5-0.3-1.1-0.6-1.6-0.9c-0.8-0.4-1.6-0.9-2.4-1.3c-0.3-0.2-0.5-0.5-0.5-0.9c0-12.3,0-24.5,0-36.8c0-0.6,0.5-1,1-1.1
	c0.4,0,0.7,0.2,1,0.4c0.5,0.2,0.9,0.5,1.4,0.8c0.8,0.4,1.6,0.9,2.4,1.3c0.5,0.3,1.1,0.6,1.6,0.9C8.5,4.1,9.4,4.6,10.2,5
	c0.4,0.2,0.8,0.4,1.2,0.6c0.6,0.3,1.1,0.6,1.7,0.9c0,0,0.1,0,0.1,0c0.6-0.3,1.2-0.7,1.8-1c0.8-0.4,1.6-0.9,2.4-1.3
	c0.9-0.5,1.7-0.9,2.6-1.4c0.9-0.5,1.7-1,2.6-1.4c0.6-0.3,1.2-0.7,1.8-1c0.4-0.2,0.7-0.2,1.1,0c4.1,2,8.2,4.1,12.2,6.1
	c0.1,0.1,0.2,0.1,0.3,0c1.5-0.9,3.1-1.9,4.6-2.8c1.5-0.9,3.1-1.9,4.6-2.8c0.3-0.2,0.6-0.3,0.8-0.5c0.6-0.3,1.5-0.1,1.6,0.7
	c0,0.1,0,0.1,0,0.2C49.9,7.5,49.9,13.6,49.9,19.8z M2.4,3.2c0,0.1,0,0.2,0,0.3c0,11.2,0,22.5,0,33.7c0,0,0,0.1,0,0.1
	c0,0,0,0.1,0.1,0.1c0.5,0.3,1,0.6,1.6,0.9c0.5,0.3,1.1,0.6,1.6,0.9c0.9,0.5,1.8,1,2.7,1.5c0.6,0.3,1.1,0.6,1.7,0.9
	c1,0.6,2,1.1,3,1.7c0,0,0.1,0,0.1,0c0.1-0.1,0.2-0.1,0.3-0.2c1-0.5,1.9-1,2.9-1.6c0.8-0.5,1.7-0.9,2.5-1.4c0.6-0.3,1.1-0.6,1.7-0.9
	c0.8-0.5,1.7-0.9,2.5-1.4c0.4-0.2,0.8-0.5,1.3-0.7c0.4-0.2,0.8-0.3,1.2-0.1c1.6,0.8,3.3,1.6,4.9,2.4c2.4,1.2,4.9,2.4,7.3,3.7
	c0.1,0,0.1,0.1,0.2,0c0.8-0.5,1.6-1,2.4-1.5c1-0.6,2-1.2,3-1.8c1.4-0.8,2.8-1.7,4.1-2.5c0.1-0.1,0.2-0.2,0.2-0.3
	c0-11.3,0-22.5,0-33.8c0-0.1,0-0.1,0-0.2c-0.6,0.3-1.1,0.7-1.7,1c-0.8,0.5-1.6,1-2.4,1.5c-0.9,0.6-1.9,1.1-2.8,1.7
	c-0.7,0.4-1.4,0.9-2.1,1.3C38.3,9,37.9,9,37.4,8.8c-2.2-1.1-4.4-2.2-6.6-3.3c-1.9-0.9-3.7-1.9-5.6-2.8c-0.1,0-0.2,0-0.2,0
	c-0.6,0.3-1.2,0.6-1.7,0.9c-0.8,0.5-1.7,0.9-2.5,1.4c-0.6,0.3-1.1,0.6-1.7,0.9c-0.8,0.5-1.7,0.9-2.5,1.4c-0.4,0.2-0.8,0.4-1.2,0.7
	c-0.5,0.3-1.1,0.6-1.6,0.9c-0.3,0.1-0.6,0.2-0.9,0c-0.5-0.2-0.9-0.5-1.3-0.7C10.7,7.8,9.8,7.3,9,6.9C8.5,6.6,7.9,6.3,7.4,6
	C6.6,5.5,5.7,5.1,4.9,4.6C4.5,4.4,4,4.1,3.6,3.9C3.2,3.7,2.8,3.5,2.4,3.2z"/>
<path class="st1" d="M2.4,3.2c0.4,0.2,0.8,0.4,1.3,0.7C4,4.1,4.5,4.4,4.9,4.6C5.7,5.1,6.6,5.5,7.4,6C7.9,6.3,8.5,6.6,9,6.9
	c0.8,0.4,1.6,0.9,2.4,1.3c0.4,0.2,0.9,0.5,1.3,0.7c0.3,0.1,0.6,0.1,0.9,0c0.5-0.3,1.1-0.6,1.6-0.9c0.4-0.2,0.8-0.4,1.2-0.7
	c0.8-0.5,1.7-0.9,2.5-1.4c0.6-0.3,1.1-0.6,1.7-0.9c0.8-0.5,1.7-0.9,2.5-1.4c0.6-0.3,1.1-0.6,1.7-0.9c0.1,0,0.2,0,0.2,0
	c1.9,0.9,3.7,1.9,5.6,2.8c2.2,1.1,4.4,2.2,6.6,3.3C37.9,9,38.3,9,38.7,8.8c0.7-0.4,1.4-0.9,2.1-1.3c0.9-0.6,1.9-1.1,2.8-1.7
	c0.8-0.5,1.6-1,2.4-1.5c0.5-0.3,1.1-0.7,1.7-1c0,0.1,0,0.2,0,0.2c0,11.3,0,22.5,0,33.8c0,0.1,0,0.2-0.2,0.3
	c-1.4,0.8-2.8,1.7-4.1,2.5c-1,0.6-2,1.2-3,1.8c-0.8,0.5-1.6,1-2.4,1.5c-0.1,0.1-0.2,0-0.2,0c-2.4-1.2-4.9-2.4-7.3-3.7
	c-1.6-0.8-3.3-1.6-4.9-2.4c-0.4-0.2-0.8-0.2-1.2,0.1c-0.4,0.2-0.8,0.5-1.3,0.7c-0.8,0.5-1.7,0.9-2.5,1.4c-0.6,0.3-1.1,0.6-1.7,0.9
	c-0.8,0.5-1.7,0.9-2.5,1.4c-1,0.5-1.9,1-2.9,1.6c-0.1,0.1-0.2,0.1-0.3,0.2c0,0-0.1,0-0.1,0c-1-0.6-2-1.1-3-1.7
	c-0.6-0.3-1.1-0.6-1.7-0.9c-0.9-0.5-1.8-1-2.7-1.5C5.1,39,4.5,38.7,4,38.4c-0.5-0.3-1-0.6-1.6-0.9c0,0-0.1-0.1-0.1-0.1
	c0,0,0-0.1,0-0.1c0-11.2,0-22.5,0-33.7C2.4,3.4,2.4,3.4,2.4,3.2z M27.2,17.6c0,0.4,0,0.7,0,1c0,0,0,0.1-0.1,0.1
	c-0.5,0.4-0.9,0.7-1.4,1c-0.9,0.7-1.8,1.4-2.7,2.1c-0.1,0.1-0.1,0.1-0.2,0.2c-0.3,0.9-0.6,1.8-0.9,2.7c-0.1,0.4-0.1,0.4,0.2,0.7
	c0.9,0.6,1.8,1.2,2.8,1.8c0.1,0,0.1,0.1,0.1,0.1c0.2,0.7,0.3,1.4,0.4,2.2c0.2,0.9,0.4,1.9,0.5,2.8c0,0.3,0.2,0.5,0.4,0.7
	c0.6,0.6,1.2,1.2,1.8,1.8c0,0,0.1,0.1,0.1,0.1c0-0.1,0.1-0.1,0.1-0.1c1-2.1,2.1-4.1,3.1-6.2c0-0.1,0.1-0.2,0.1-0.3
	c0-0.6,0-1.3,0-1.9c0-0.1,0-0.2-0.1-0.2c-0.7-1-1.3-2-2-3c0-0.1-0.1-0.1-0.2-0.2c-0.6-0.3-1.2-0.6-1.8-0.9c-0.1,0-0.1-0.1-0.1-0.1
	c0,0,0,0,0,0c0.1,0,0.1,0,0.2,0c0.6,0,1.1,0,1.7,0c0.1,0,0.2,0,0.3,0.1c0.6,0.6,1.3,1.3,1.9,1.9c0,0,0.1,0.1,0.1,0.1
	c1.1-0.7,2.1-1.4,3.2-2.2c0.4,0.7,0.7,1.4,1.1,2.2c0.4-0.7,0.7-1.4,1.1-2.2c0.7,0.7,1.4,1.4,2.2,2.2c0-0.1,0.1-0.1,0.1-0.1
	c0.3-0.6,0.6-1.2,0.9-1.8c0.1-0.1,0.1-0.2,0.2-0.3c0.6-0.6,1.3-1.3,1.9-1.9c0.1-0.1,0.1-0.2,0.1-0.3c-0.3-1-0.6-1.9-1-2.9
	c0-0.1,0-0.2,0.1-0.3c0.9-0.6,1.9-1.2,2.8-1.9c0.1-0.1,0.2-0.1,0.3-0.2c-0.1,0-0.2,0-0.3,0c-0.4,0-0.7-0.1-1.1-0.1
	c-0.3,0-0.7-0.1-1-0.1c-0.4,0-0.7-0.1-1.1-0.1c-0.3,0-0.7-0.1-1-0.1c-0.4,0-0.7-0.1-1.1-0.1c-0.3,0-0.7-0.1-1-0.1
	c-0.4,0-0.7-0.1-1.1-0.1c-0.2,0-0.5,0-0.7-0.1c-0.4,0-0.8-0.1-1.1-0.1c-0.3,0-0.6,0.1-0.9,0.1c-0.4,0.1-0.9,0.1-1.3,0.2
	c-0.5,0.1-1,0.2-1.5,0.2c-0.5,0.1-1,0.1-1.5,0.2c-0.7,0.1-1.4,0.2-2.1,0.3c-0.1,0-0.3,0-0.4,0.1c-1,0.7-2,1.3-3,2
	C24,16.5,24,16.6,24,16.7c0,1,0,2,0,2.9c0,0,0,0.1,0,0.2C25.1,19.1,26.1,18.3,27.2,17.6z M16.4,34.9c0.2-0.9,0.3-1.7,0.5-2.6
	c0.2-0.9,0.4-1.8,0.5-2.6c0-0.1,0.1-0.2,0.2-0.3c0.3-0.3,0.6-0.6,0.8-0.8c0.1-0.1,0.1-0.1,0.2-0.2c0.3-0.6,0.6-1.3,1-1.9
	c0.1-0.1,0.1-0.2,0-0.2c-0.7-0.7-1.3-1.3-2-2c0,0-0.1-0.1-0.1-0.1c-0.9-0.2-1.8-0.5-2.7-0.7c-0.5-0.1-1-0.3-1.6-0.4
	c0-0.6,0-1.2,0-1.8c0-0.2,0.1-0.4,0.2-0.5c1.3-1.3,2.7-2.7,4-4c0,0,0.1-0.1,0.1-0.2c-0.7-0.7-1.4-1.4-2.2-2.1c0,0,0.1-0.1,0.1-0.1
	c0.3-0.3,0.6-0.6,0.8-0.8c0,0,0.1-0.1,0.1-0.1c0-0.3,0-0.7,0-1c-0.1,0-0.1,0-0.2,0c-0.4,0.1-0.8,0.1-1.1,0.2c-0.5,0.1-1,0.2-1.5,0.2
	c-0.5,0.1-1,0.2-1.5,0.3c-0.4,0.1-0.9,0.2-1.3,0.2c-0.4,0.1-0.9,0.1-1.3,0.1c-0.5,0-1,0-1.6,0c-0.1,0-0.2,0-0.2,0.1
	c-0.7,0.6-1.3,1.3-2,2c0,0-0.1,0.1-0.1,0.1c0,0.3,0,0.7,0,1.1c0.7,0,1.4,0,2.1,0c0.3,1.4,0.7,2.8,1,4.1c0,0.1,0.1,0.2,0.2,0.3
	c1,1,2,2,3,3c0.1,0.1,0.2,0.2,0.1,0.4c-0.3,0.6-0.6,1.2-0.9,1.8c-0.1,0.2-0.1,0.2,0.1,0.4c0.6,0.6,1.3,1.3,1.9,1.9
	c0.1,0.1,0.1,0.1,0.1,0.2c0.1,0.3,0.1,0.6,0.2,0.9c0.2,0.8,0.3,1.6,0.5,2.4c0.1,0.6,0.2,1.3,0.4,1.9c0,0,0.1,0.1,0.1,0.1
	C15,34.2,15.7,34.5,16.4,34.9C16.4,34.9,16.4,34.9,16.4,34.9z M42.3,33.8c0.4-1.1,0.7-2.1,1.1-3.2c0-0.1,0-0.1,0-0.2
	c-0.2-0.6-0.4-1.2-0.6-1.8c-0.1-0.4-0.3-0.9-0.4-1.3c0,0,0,0-0.1,0c-1.4,0.7-2.8,1.4-4.2,2.1c-0.1,0-0.1,0.1-0.1,0.2
	c0,0.6,0,1.2,0,1.9c0,0,0,0.1,0,0.1c0.1,0,0.1,0,0.2,0c0.6,0,1.2,0,1.8,0c0.1,0,0.2,0,0.2,0.1c0.4,0.3,0.7,0.7,1.1,1.1
	C41.6,33.1,42,33.5,42.3,33.8z M21.8,12.2C21.7,12.2,21.7,12.2,21.8,12.2c-1.1,0-2.1,0-3.1,0c-0.1,0-0.1,0.1-0.2,0.1
	c-0.3,0.6-0.6,1.3-0.9,1.9c0,0.1,0,0.2,0,0.2c0.3,0.6,0.6,1.3,1,1.9c0,0,0,0.1,0.1,0.1c1-0.7,2.1-1.4,3.1-2.1
	c0.1-0.1,0.1-0.1,0.1-0.2c0-0.6,0-1.2,0-1.9C21.8,12.3,21.8,12.3,21.8,12.2z"/>
<path class="st0" d="M27.2,17.6c-1.1,0.7-2.2,1.4-3.2,2.1c0-0.1,0-0.1,0-0.2c0-1,0-2,0-2.9c0-0.1,0-0.2,0.1-0.2c1-0.7,2-1.3,3-2
	c0.1-0.1,0.2-0.1,0.4-0.1c0.7-0.1,1.4-0.2,2.1-0.3c0.5-0.1,1-0.1,1.5-0.2c0.5-0.1,1-0.2,1.5-0.2c0.4-0.1,0.9-0.1,1.3-0.2
	c0.3,0,0.6-0.1,0.9-0.1c0.4,0,0.8,0.1,1.1,0.1c0.2,0,0.5,0,0.7,0.1c0.4,0,0.7,0.1,1.1,0.1c0.3,0,0.7,0.1,1,0.1
	c0.4,0,0.7,0.1,1.1,0.1c0.3,0,0.7,0.1,1,0.1c0.4,0,0.7,0.1,1.1,0.1c0.3,0,0.7,0.1,1,0.1c0.4,0,0.7,0.1,1.1,0.1c0.1,0,0.2,0,0.3,0
	c-0.1,0.1-0.2,0.1-0.3,0.2c-0.9,0.6-1.9,1.2-2.8,1.9c-0.1,0.1-0.2,0.1-0.1,0.3c0.3,1,0.6,1.9,1,2.9c0,0.1,0,0.2-0.1,0.3
	c-0.6,0.6-1.3,1.3-1.9,1.9c-0.1,0.1-0.2,0.2-0.2,0.3c-0.3,0.6-0.6,1.2-0.9,1.8c0,0-0.1,0.1-0.1,0.1c-0.7-0.7-1.4-1.4-2.2-2.2
	c-0.4,0.7-0.7,1.4-1.1,2.2c-0.4-0.7-0.7-1.4-1.1-2.2c-1.1,0.7-2.2,1.4-3.2,2.2c0,0-0.1-0.1-0.1-0.1c-0.6-0.6-1.3-1.3-1.9-1.9
	c-0.1-0.1-0.2-0.1-0.3-0.1c-0.6,0-1.1,0-1.7,0c-0.1,0-0.1,0-0.2,0c0,0,0,0,0,0c0,0,0.1,0.1,0.1,0.1c0.6,0.3,1.2,0.6,1.8,0.9
	c0.1,0,0.1,0.1,0.2,0.2c0.7,1,1.3,2,2,3c0,0.1,0.1,0.2,0.1,0.2c0,0.6,0,1.3,0,1.9c0,0.1,0,0.2-0.1,0.3c-1,2.1-2.1,4.1-3.1,6.2
	c0,0,0,0.1-0.1,0.1c0,0-0.1-0.1-0.1-0.1c-0.6-0.6-1.2-1.2-1.8-1.8c-0.2-0.2-0.3-0.4-0.4-0.7c-0.2-0.9-0.4-1.9-0.5-2.8
	c-0.1-0.7-0.3-1.4-0.4-2.2c0-0.1-0.1-0.1-0.1-0.1c-0.9-0.6-1.8-1.2-2.8-1.8c-0.4-0.2-0.4-0.2-0.2-0.7c0.3-0.9,0.6-1.8,0.9-2.7
	c0-0.1,0.1-0.2,0.2-0.2c0.9-0.7,1.8-1.4,2.7-2.1c0.5-0.3,0.9-0.7,1.4-1c0,0,0.1-0.1,0.1-0.1C27.2,18.3,27.2,18,27.2,17.6z"/>
<path class="st0" d="M16.4,34.9C16.4,34.9,16.4,34.9,16.4,34.9c-0.7-0.4-1.4-0.7-2.1-1c0,0-0.1-0.1-0.1-0.1
	c-0.1-0.6-0.3-1.3-0.4-1.9c-0.2-0.8-0.3-1.6-0.5-2.4c-0.1-0.3-0.1-0.6-0.2-0.9c0-0.1-0.1-0.2-0.1-0.2c-0.6-0.6-1.3-1.3-1.9-1.9
	c-0.1-0.1-0.1-0.2-0.1-0.4c0.3-0.6,0.6-1.2,0.9-1.8c0.1-0.2,0.1-0.3-0.1-0.4c-1-1-2-2-3-3c-0.1-0.1-0.1-0.2-0.2-0.3
	c-0.3-1.4-0.7-2.8-1-4.1c-0.7,0-1.4,0-2.1,0c0-0.4,0-0.7,0-1.1c0,0,0.1-0.1,0.1-0.1c0.7-0.7,1.3-1.3,2-2c0.1-0.1,0.1-0.1,0.2-0.1
	c0.5,0,1,0,1.6,0c0.4,0,0.9-0.1,1.3-0.1c0.4-0.1,0.9-0.1,1.3-0.2c0.5-0.1,1-0.2,1.5-0.3c0.5-0.1,1-0.2,1.5-0.2
	c0.4-0.1,0.8-0.1,1.1-0.2c0,0,0.1,0,0.2,0c0,0.3,0,0.7,0,1c0,0-0.1,0.1-0.1,0.1c-0.3,0.3-0.6,0.6-0.8,0.8c0,0-0.1,0.1-0.1,0.1
	c0.7,0.7,1.4,1.4,2.2,2.1c-0.1,0.1-0.1,0.1-0.1,0.2c-1.3,1.3-2.7,2.7-4,4c-0.2,0.2-0.2,0.3-0.2,0.5c0,0.6,0,1.2,0,1.8
	c0.5,0.1,1,0.3,1.6,0.4c0.9,0.2,1.8,0.4,2.7,0.7c0,0,0.1,0.1,0.1,0.1c0.7,0.7,1.3,1.3,2,2c0.1,0.1,0.1,0.1,0,0.2
	c-0.3,0.6-0.6,1.3-1,1.9c0,0.1-0.1,0.2-0.2,0.2c-0.3,0.3-0.6,0.6-0.8,0.8c-0.1,0.1-0.1,0.2-0.2,0.3c-0.2,0.9-0.3,1.8-0.5,2.6
	C16.8,33.1,16.6,34,16.4,34.9z"/>
<path class="st0" d="M42.3,33.8c-0.3-0.3-0.7-0.7-1-1c-0.4-0.4-0.7-0.7-1.1-1.1c-0.1-0.1-0.2-0.1-0.2-0.1c-0.6,0-1.2,0-1.8,0
	c-0.1,0-0.1,0-0.2,0c0-0.1,0-0.1,0-0.1c0-0.6,0-1.2,0-1.9c0-0.1,0-0.2,0.1-0.2c1.4-0.7,2.8-1.4,4.2-2.1c0,0,0,0,0.1,0
	c0.1,0.4,0.3,0.9,0.4,1.3c0.2,0.6,0.4,1.2,0.6,1.8c0,0.1,0,0.1,0,0.2C43,31.7,42.7,32.7,42.3,33.8z"/>
<path class="st0" d="M21.8,12.2c0,0.1,0,0.1,0,0.2c0,0.6,0,1.2,0,1.9c0,0.1,0,0.1-0.1,0.2c-1,0.7-2.1,1.4-3.1,2.1
	c0,0-0.1-0.1-0.1-0.1c-0.3-0.6-0.6-1.3-1-1.9c0-0.1,0-0.2,0-0.2c0.3-0.6,0.6-1.3,0.9-1.9c0-0.1,0.1-0.1,0.2-0.1
	C19.7,12.2,20.7,12.2,21.8,12.2C21.7,12.2,21.7,12.2,21.8,12.2z"/>
</svg>
