<svg id="Layer_1" xmlns="http://www.w3.org/2000/svg" viewBox="0 0 100 134">
  <style>
    .st0{fill:#BF9F00;stroke:#BF9F00;stroke-width:3;stroke-linecap:round;stroke-linejoin:round;stroke-miterlimit:10;} .st1{fill:#FFD400;stroke:#BF9F00;stroke-width:3;stroke-linecap:round;stroke-linejoin:round;stroke-miterlimit:10;} .st2{fill:#FFFFFF;}
  </style>
  <path class="st0" d="M96.2 6.1c-1.1 0-2.1-.1-3.2-.1-1.1 41.8-1.1 81.9.1 120.1-28.3 2.2-58.5 1.4-90.1 0v.6c6.8 2.9 80.7 4.2 93.5 2.7 1.1-.2 1.1-82.9-.3-123.3z"/>
  <path class="st1" d="M94.5 127.5C95.3 89.3 94.4 47.8 93 6c0-.7 0-1.4.1-2.1C63.6 2.7 33.5 2.7 3 3.9c-1.1 40.2-1 81 0 122.3 31.6 1.4 63.2 3.5 91.5 1.3z"/>
  <path class="st2" d="M29.4 22.1v.2l-.1.9v.1l.1.4-.1.5v.7l-.1.9-.4 1-.4.7-.2.2-.1.3-.5.4-.2-.1V28.6l-.6.4-.6.2H26l-.1.1-.4.2-.8.2h-.9l-.1.1h-2l-.3.2-.1.2V33.6l.1.1v.3l-.1.5v1.1l-.1.4v.2l-.1.5.1.1-.1.6v.7l-.1.6V39l-.1.1-.3.2-.4.1H17l-.3-.1.3-.1-.1-.3-.1-.2v-.2l.1-.6V35.5l-.1-.2.1-.4V32l-.1-.2.1-.3v-1.2l-.1-.5V19.3l.1-.4V15.7l.2-.6.3-.2h.5l.5-.1h1l.7.1-.1.1h4.2l.3.1.2.1.1-.1.8.2 1 .4.4.3.3.2v.1l.2.1.2.2v.1l.1.1.4.5.5.8.3 1.3.1.1.1.6v.4l.1.3v.1l.1.2v1zM17 25.3l.2.1v-.1H17zm.1-4.7h.1l.1-.1h-.2v.1zm.1 5.4h-.1.1zm.5 2.6v.1h.1l-.1-.1zm0 2.8zm.4-11.2h-.4.4zm-.3 2v-.1.1zm.2-3l-.2-.1v.1l.2.1v-.1zm0 3.8l-.2.1v.1h.1l.1-.1.3-.1v.1l.1.1.1.1-.1-.4v-.1h-.1l-.1.2H18zm-.1 7.1zm0-2.2l-.1-.1.1.1zm0 6.5l.1-.1h-.2l.1.1zm.1-11.7h-.1.1zm.1 4.8v-.1h-.2v.1l.1.1.1-.1zm0-.3V27l-.1-.1v.2l.1.1zm0-5.6zM18 35.2l.1-.1-.1.1zm.1-10.8h.1-.1v-.1H18l.1.1zm0 5.2zm.1-.7l.1-.1-.1-.1-.1.2h.1zm0-1.3h-.1.1zm0 9.2h-.1.1zm0-11.2l.2.1v-.2h-.3l.1.1zm.1-6.8v.2H18.6l-.1-.2h-.1v.1l-.1-.1zm.1 3.2h.1v-.1l-.1-.1-.2.2h.2zm-.2.2v.1l.1.1.1-.1-.2-.1zm.1 11.1h.1-.1zm.1-6.9v-.1h-.1l-.1.1h.2zm0 .7h-.1.1zm-.1-4.5h.1v-.1h-.1v.1zm.2 6.1h-.1.1zm-.1-4.5h.1-.1zm0 3.3zm0 .6v.1l.1.1v-.1l-.1-.1zm.1-.4v-.1.1zm.3-4.4h-.2l-.2.4v.1l.1.1v-.1l-.1-.2.4-.3zm-.2 8l.1-.1h-.1v.1zm.1-11.6h.2v-.1.1h-.2zm0 2v.1l.1.1h.1v-.1l-.2-.1zm.1 5.1v-.2h-.1l.1.2.2.2v-.1l-.1-.1h-.1zm-.1.7v-.1.1zm0 2.7zm0 2.5zm.1-7.9l-.1-.1v.1h.1zm.2 3.8h-.1l-.1.1-.1.1h.2l.1-.1v-.1zm-.3.7l.2.2.3-.1-.1-.2-.3.1h-.1zm.2 2.5l-.1.1h.1v-.1zm-.1.4l.1.2h.1v-.1l-.2-.1zm.3-14l-.1-.1h-.2l-.1.1h.4zm-.1 5.9l-.2-.1v.1l.2.1v-.1zm-.1 10.4l-.1-.1.1.1zm.1-15.3h-.1v.1l.1-.1zm.1 5.3l-.1-.1-.1.1h.2zm-.2 3.8zm.1 1.6h-.1v.1l.1-.1zm-.1-7.2l.1.3h.2l-.1-.2-.2-.1zm.1-3.9v.1l.1-.1v-.1H19v.1zm.2 3.4h-.1l-.1.1.2-.1zm-.2 2.4zm.1-8.1zm0 12l.1-.1-.1.1zm0 1.6zm0 1l.1.1h.2v-.1l-.3-.1v.1zm0-4.2l.2-.1-.2.1zm.1 7.4h-.1.1zm.1-8.8v-.2h-.1v.1l.1.1zm0 .2zm0-2.2v-.1.1zm.4 4.2v-.1h-.1l-.2.1h-.2v.1h.1l.1-.1h.3zm-.4 4l-.1-.1.1.1zm0 .6v-.1.1zm.2-14.6l-.1-.1h-.1l.1.1h.1zm-.1 8.4l-.1.1v.1h.1v-.2zm-.1 2.3zm0 .4h.1v-.1h-.1v.1zm.1-9.4zm0 7.5zm.1.4v-.2h-.1l-.1.1.2.1zm-.2.1l.2.1-.1-.1h-.1zm.2 3.1h-.1l-.1.1h.2v-.1zm-.1-10.4l.1.1h.1v-.1h-.2zm.4 13.6h-.4.4zm-.3-11.5l.1.1h.1v-.1h-.2zm.1 6.8v-.1h-.1l.1.1zm.1-7.5v.1h.1l-.1-.1zm0 2.4zm-.1.8v.1-.1zm.1.7h-.1l.1.1v-.1zm0 .7v.2h.2v-.1l-.2-.2h-.1l.1.1zm0 8.4zm.3-11.7l-.2-.1-.1.1.1.1h.2v-.1zm-.3 7.4h.1-.1zm.1-12.2h.1-.1zm.3.4l-.1-.2h-.2v.1l.3.1zM20 29.7l-.1-.2h.1v-.1h-.1l-.1.1v.2h.2zM19.9 19v-.1.1zm0 5.6zm0 3.7h-.1v.1l.1.1h.1l-.1-.2zm.1-2.8v-.1l.1-.1v-.1h-.2l-.1.3h.2zm-.1-8.8l.1.1v-.1h-.1zm.1 5.8l.1-.2H20l-.1.1.1.1zm0 3.2l-.1.1v.1l.2-.1.1-.1H20zm-.1-3.7l.1.1-.1-.1zm.1 5.3h.2v-.1H20v.1zm0-2.6l.1-.1h-.2l.1.1zm.2-8.9H20v.1h.2v-.1zM20 24zm.2 8.1l.1.1v-.1l-.1-.2-.1-.1H20l.2.3zm-.1 1.1l.1-.2h-.1v.2zm0 4.9V38v.1zm.1-16.3h-.1v.1h.1v-.1zm0 5.7zm0 4.1zm.1-14l-.1.1v.1h.1v-.2zm-.1 1.6l.1.1-.1-.1zm0 .4v.1-.1zm.1 18.8v-.1h-.1v.2l.1-.1zm0-18.5l.1-.1h-.1v.1zm0 7.1v.2h.3l.1.1v-.1l-.2-.4-.2.2zm0 2.2l.1.1h.1l.2-.1.1-.2-.1-.2v-.1h-.1l-.1.1.1.2v.2h-.1zm0-3.6h.2l.2-.1v-.1h-.1l-.3.2zm.1-1.3zm.2 2.1l.1-.1-.1-.3-.3.1v.1h.1v.2h.2zm-.1 3.9l-.1-.1v.1h.1zm.1-13l-.1-.1v.1h.1zm0-.9zm0 3.6zm0 14zm.1-2l.1-.1h-.1v.1zm0-3.2zm.5-12h-.5.5zm-.3 2.7l-.1-.1v.1h.1zm-.1 9.1zm0-5.8v.1-.1zm.2 4.6l.2-.2-.1-.1H21v.1l.1.1H21l-.1.1.1.1.1-.1H21zm-.2-8.4zm.2-1.3h.2l-.2-.1v.1zm.2 1.9h-.1v.1l.1-.1zm0 5.9h-.1.1zm.1 1.9h-.1.1zm3.7-5.3V21l-.1-.1v-.4l-.2-.4v-.5l-.2-.2h-.1l-.1-.1-.2-.2-.4-.1-1.1-.2-.4.1h-.7l-.2.2V26.3l.1.2.3.2h1.6l1-.3.3-.3.3-.6.1-.2.1-1.3v-.1l-.1-1.8zm-3.4 5.1l-.1-.1.1.1zm.4-.8l.1-.2-.1.1v.1zm.7 1.3zm.4.3H23v.1l.1-.1zm.2-.6h.1v-.1h-.2v.1h.1zm.2.8h.1v-.1l-.1-.1h-.1v.1l.1.1zm.1-12.7h-.1.1zm.3 11h-.1l.1.1v-.1zm.4-9.8h-.2v.1h.2v-.1zm.1 1.3h-.1.1zm.7 11h.1-.1zm.1-13.5h.1v-.1l-.1.1zm.2.7l-.1-.2h-.1v.1l.2.1zm.4 12.8h-.1l.1.1V29zm.1-4.2l-.2-.1v.1l.1.1.1-.1zm.2-1.2l.1-.1v-.1l-.1-.1H26v.2l.1.1zm-.1-4.4h.1-.1zm0 9.6zm.2-.6zm.2-7.2h-.1v.1l.1-.1zm0-1.6l.2.1v-.2l-.2.1zm.2.4zm.2 2.4zm.3.6l.1-.2h-.1v.2zm.2.4l-.1-.1V23.4h.1v-.2zm.2-2.2h.1v-.2l-.2-.3v.1l.1.2v.2zm0 2l.1-.1-.1.1zm.3-.1v-.1.1zm.1-1l-.1-.1.1.1zm.2 2.7l.1-.1h-.1v.1zm.2.3l-.2.1h.2v-.1zm0 .8h-.1v.1l.1-.1zM42.5 38.3l.1.8-.1.1-.1.1-.4.1-.3-.1H40.8l-.2.1h-2l-.3-.1-.3-.4v-.8l.1-.3v-.1l-.1-.1v-.1l-.1-.5v-.5l-.1-.3v-.5l-.1-.4v-.5l-.1-.3-.2-.2h-3l-.3.1-.1.3-.1.4v.2l-.1.2v.6l-.1.4v.5l-.1.3v.6l-.1.6-.2.4-.3.4-.3.1h-2.9l-.4-.1-.3-.3.1-.6.1-.2.2-1.2.1-.2h.1l-.1-.1.2-1.6.1-.3v-.4l.1-.4.3-1.4v-.5l.2-.4.1-.8v-.7l.1-.3.1-.2.2-1.3.1-1 .1-.3.2-.1-.1-.2.1-.3.1-.2v-.7l.2-.6v-1l.1-.3.3-1.4.2-1.2v-.5l.1-.2.3-1.6.2-.6v-.5l.2-.5v-.1l.2-.7v-.7l.3-.5.4-.2 1 .1h1.4l.3-.1.4.1h1.1l.3.1.2.3.3 1.1v.5l.1.4.3 1.5v.5l.1.3v.3l.2.8.1.2v.4l.2.9v.7l.2.5v.6l.1.5.3 1.2-.1.2.2.3v.5l.1.3v.4l.3 1.1v.4l.2.8.3 1.7.2.6v.8l.1.2.3 1.4.3 1.4.1.9-.1 1.4zM29.7 37l-.1-.1v.1h.1zm0 2.2l-.1-.1v.1h.1zm.5-1.4zm.6.1v-.1.1zm0-2.2h.1-.1zm.1 1.7l.1-.1h-.1v.1zm-.1-1.9l.1.1h.1v-.1l-.1-.1-.1.1zm.2.3h.1-.1zm.1 1.9zm.3-6.6zm.1-4.8h.1-.1zm.1 9.8zm.2-7.5h-.1v.1h.2l.1.1h.1v-.2H32v.1l-.2-.1zm-.1 5.6h.2-.2zm.1-4.9v-.1h-.1v.1h.1zm-.1 5.1l.2.1-.1-.2-.1.1zm0-2.3v.1h.1l.1-.1V32h-.2zm.3-.3v-.1h-.1v.1h.1zm.1-2.6zm-.1 1.3h.2v-.1l-.2.1zm.1 4.6l-.1-.2.1.2zm.1 1H32h.2zm.1-8.9h-.2l.1.1.1-.1zm-.1 4.9V32v.1zm.1-2.5zm0-3.6l.1.1h.1V26h-.2zm0 2.4l.1.3h.1l.1-.1-.1-.2h-.2zm0 .7l.1-.1-.1.1zm.2-3.3h.1v-.1h-.2l.1.1zm.1-2.2zm-.1 6l.1.1v-.1l-.1-.1h-.1v.1zm.2 5.8l.2-.2h-.1l-.1.1-.1-.2-.1.1.2.2zm0-8.8h-.1v.1l.1.1v-.2zm.1 1.1l-.1-.1h-.1l.1.3h.3v-.1l-.2-.1zm-.1.3v-.1.1zm0 5.6h-.1.1zm.1-.4h-.1.1zm0-4.5v.1h.2v-.1l-.1-.1-.1.1zm0-3.9v.2h.1v-.1l.3-.3v-.1h-.1l-.3.3zm0 3.5l.1-.1-.1.1zm.1 1h-.1v.1h.1v-.1zm.1 4.3l-.1-.1v.1h.1zm0-10l-.1.3h.1l.2.3h.1v-.4h-.2v-.2H33zm.1 3.5l-.2-.2v.1l.2.1zm0-3.8l-.1-.1.1.1zm-.2 7.8l.1.2h.1v-.2h-.2zm.1 1.8v.2h.1l-.1-.2zm0-6.7l.1.1v-.1l-.1-.1v.1zm.1 2.2zm.1.3l-.1-.1.1.1zm0-8.3v-.1.1zm.1 10.1l.1-.2h-.1v.2zm-.1-4.6l.1.1v-.1h-.1zm.1 5.7l.1-.1-.1.1zm.1-10.6l.1-.1v-.1l-.2-.1.1.1-.2.1v.1h.2zm-.1 5.4v-.1.1zm.1 1.8h-.1.1zm0 2.9zm0-6.9h.1l-.1-.1v.1zm.1.3l-.1.1v.1l.1.1v-.3zm.1-5h-.1l.1.1v-.1zm-.1 9.8h.2v-.1l-.2-.2v.3zm0 3.8h-.1v.1l.1-.1zm.1-6.5l.1-.1v-.2l-.1-.1h-.1l-.1.1v.3h.2zm-.1 3.5V30h-.1l.1.1zm0 1.6h.1-.1zm.1 1.1h-.1.1zm0-16.5l-.1.1h.1v-.1zm0 7.4h.3v-.1l-.1-.1h-.1l-.1.1v.1zm-.1 4.3h.2l.1-.1h-.2v.1zm.1-3.9h.2V24h-.2v.1zm0-1.9zm0 3.5v.2l.1.1-.1-.3zm.2-5.1l-.1-.1h-.1l.1.1h.1zm-.1 6.5l-.1.2.1.2h.1l-.1-.2v-.2zm0 5.4h-.1.1zm0-4.1zm.1 2.5l-.1-.1h-.1v.1h.2zm0-12.3h.3l-.2-.1h-.1v.1zm0 8.2l.2.2h.1v-.1l-.3-.1zm.1-6.4v-.1.1zm0 4.2l.2.2v-.1l-.1-.1h-.1zm.1 2v-.2l-.1-.1-.1.1.2.2zm0-6h.2l.1-.1v-.1h-.4l.1.2zm.1.4l-.1-.2h-.1v.1l.2.1zm-.1.7l.2.1.1-.1-.1-.1-.2.1zm0 .5h-.1.1zm0 1zm.1-.7zm-.1 1.9h.2v-.1l-.1-.1-.1.2zm0 8.5l.1.1-.1-.1zm.3 0v-.1l-.1-.2h-.1l.2.3zm-.2-1.4l.2.1.2-.1v-.1h-.2l-.2.1zm.1-11.3v.1h.1l.1-.1h-.2zm.3 1.1l-.2-.2h-.1l-.1.1v.1h.2l-.1.1H34.5l.2.1.1-.1-.1-.1h-.2zm-.3 1.9V23l-.1.1v.1h.1zm.1.6v-.2h-.1v.2h.1zm-.1 1.3l.2.1V25l-.2.1zm0-7.5v.1h.1v-.1h-.1zm.1 11.5zm0 3.1l-.1.1v.2h.1v-.3zm.1.8h-.1.1zm.1-12.4l-.1-.1.1.1zm-.1 3.5l.2.1h.1l-.3-.1zm.1 1.8l-.1.2h.1v-.2zm-.1 3h.1-.1zm.1-10.3l-.1.1v.2l.1-.1v-.2zm.2 1.6h-.2v.1l.2-.1zm-.2 2.9V23v.1zm0-3.3v.2h.1v-.2h-.1zm0 2.7h.1-.1zm0-4.1zm0 1.1l.1.1v-.1h-.1zm0 4.4l.1-.1-.1-.1v.2zm0 7.5l.1.1v-.1h-.1zm.1 2.1h.1v-.1l-.1.1zm.2-14.8l-.1-.1v.1l-.1.3h.1l.4-.2v-.1h-.3zm-.2 2.1l.1.1.1-.1h-.2zm.1 1.5l.1-.1h-.1v.1zm0 10.9l.3-.2-.2-.3-.1.5zm1.7-2.7l.4-.1.1-.1v-.8l-.1-.6v-.7l-.2-.2-.2-1.4-.1-.2-.1-1v-.5l-.2-1-.1-.2h-.1l-.1.6-.1.3v.2l-.1.8-.3 1.8-.3 1.3v1l-.1.5v.2l.2.2h1.4zm-1.6 1h.1v-.1l-.1-.1v.2zm0-13.3zm.2 1.6l-.2-.1v.1l.1.1.1-.1zm.2 1.1l.2-.2v-.1h-.1l-.2.1H35v.2l-.2.1h.1l.1.1h.1l.1-.2zm-.3 12.4l.1-.1-.1.1zm.1-9.7v-.2.2zm0-4.4zm.2 1H35l.1.1h.2l-.1-.1zm-.1-.2l.1.1-.1-.1zm.1-.3l.2.1v-.1l-.1-.1-.1.1zm.3 11.6l.1.2h.1l.1-.1v-.1l-.1-.1-.2.1v-.1l-.1-.1H35l.3.1.2.1zm-.2.6h-.1v.1l.1-.1zm.1-12.7l-.2.1h.2l-.1.1.4.2.1-.3h-.2l-.2-.1zm-.1 14l.1-.2h-.1l-.1.1.1.1zm.1-14.3v.2h.3V19h-.2l-.1-.1zm.4-.6l-.1-.1h-.2l-.1.1v.1l.4-.1zm-.2 13.6h-.1v.1l.1-.1zm.2-13.2h-.2v.1l.1.1.1-.2zm.2 13.1v-.3l-.2.1v.1l.2.1zm-.2.8l-.1-.2.1.2zm0-12.7v.2h.1l.1-.3-.2-.1v.2zm.1-.6l.1.1h.1l-.1-.1-.3-.1v.2h.2zm0-.3v.1-.1zm0 1.6v.2l.1-.1v-.1h-.1zm.1-2.9zm0 .9l.3-.1.1-.1-.4.1v.1zm.1.5l.1.1h.1v-.1l-.2-.1v.1zm0 13.1v.1l.1.1.1-.1-.2-.1zm.3-.1h-.2v.1l.2-.1zM36.3 18h-.1v.2h.1V18zm0-1.2v-.1.1zm0 1.5zm.1 1.8l-.1-.2v.2h.1zm0-3v.1l.1.1.1-.2h-.2zm.1 1.5l.1.1v-.1h-.1zm.1-.4v-.1h-.1l.1.1zm.1-.4h-.1.1zm-.1-1.4v-.1.1zm0 .2l.1-.1v-.1h-.1v.2zm.1 16.7l-.1-.1.1.1zm0-11l-.1.1h.1v-.1zm0 10.5h.2v-.1l-.2.1zm.1-12.1h.1-.1zm.1 2.9l-.1.2.3.2h.1v-.1H37l-.1-.3zm0 8.6V32l-.1-.1V32.2h.1zm-.1-14.3h.2v-.1h-.1v.1zm.1 1.3h.1-.1zm0 2.9v.2h.1v-.1l-.1-.1zm.2.3l-.2.2.3.1.2-.1v-.1h-.2l-.1-.1zm.1.9v-.2h-.1l.1.2zm.1-3.2l-.2-.1v.1h.2zm-.2 1.8v.1-.1zm0 10.7zm.1-9.1zm0 9.4l.1-.1v-.1h-.1v.2zm-.1.4h.1v-.1h-.1v.1zm.2-17h-.1v.1h.1v-.1zm0 7.4l-.1.1.1.1.1-.2h-.1zm-.1-5.8v.1h.1v-.2l-.1.1zm0 1l.2.2h.1V19l-.2-.1zm.1 12.7zm0-15.1l.1.1v-.1h-.1zm.3 1.7l-.2-.1-.1.1v.1l.3-.1zm-.2 8.3zm0-10.6v.1h.1l-.1-.1zm.2 5.9l-.2-.1h-.1v.1h.3l.3-.1v-.1h-.2l-.1.1v.1zm0 11.7l.3-.2h-.1l-.1-.1-.1.3h-.1l.2.2v-.2h-.1zm0-9.7l-.1-.1-.1.1v.4l.1.1v-.1l.1-.1h.1V24l-.2-.2h.1zm-.1.8l.1-.2h-.1v.2zm1.3 6.8h.1l.3-.1v-.1l-.2.1h-.1l-.3-.3v-.1l.2-.2h-.1l-.2.2-.1.3h.1l.1.3v.1h-.2v.2H38.1v-.3l-.1-.1-.1.3-.1-.1h-.3l.1.1.2.1h.3l.1.1.4-.1.2-.1v-.3zm-1.3 1.3h.1v-.1l-.1.1zm0-5.9h.1-.1zm0-6.3zm0 .3l.1.2h.1v-.2h-.2zm0 10.7h.3v-.1l-.3.1zm.7-9l-.2-.1-.1-.2-.4-.2v.2l.2.1v.1h.3l.1.1h.1zm-.6 8.2l.2.1v.1l.1.2.2.1h.1V31l-.2-.1-.1-.1-.2-.3h-.1v.2zm.1.6v-.1l-.1-.2v.3h.1zm0-7.9l.1-.1-.2-.1-.1.1h.2zm0 9.6l.1-.1h-.1v.1zm0-6.2zm0 1.8l.1.1v-.1h-.1zm.1-10.4v.1h.1v-.2l-.1.1zm.2 14.4v.2l.1.1h.1v-.2l.1-.3h-.1l-.1-.1H38v.2h-.1l-.2-.1v.1l.3.1zm-.2-13.7h.1v-.1l-.1.1zm.3.5l-.2-.3h-.1l.2.3h.1zM38 23l-.1-.1v.1h.1zm-.1 1.6zm0 5.2h.2v-.1l-.2.1zm.1-5.6V24v.1zm.2 9.2l-.2-.1v.1l.1.1.1-.1zm-.1-4.9zm.1-6.3V22h-.1v.1l.1.1zm-.1 7.8l.2.1V30h-.2zm0 .8zm.1-7.5v.1h.1l-.1-.1zm.1-2.5zm.1 12.6v-.1h-.1v.1h.1zm0-12v.2l.2.1h.1v-.1l-.1-.1v-.2h-.1v.1zm0 3v-.2.2zm.1-3.7l-.1.1h.1l.1-.1h-.1zm-.1 9.3l.1-.1h-.1v.1zm0-12.8l.1.1.1-.1h-.2zm.1 2.4l.1.1v-.1h-.1zm0 14.5h.1-.1zm.1 1.7l.1-.1-.1.1zm.1-13.4l-.1-.2h-.1v.1l.1.2.1-.1zm-.1 6.4h.1v-.1l-.1.1zm.1 3h-.1.1zm-.1-11.9zm.1 13.5zm0-3.8zm.4 1.1h-.2l-.1.1h.2l.1-.1zm-.2-11.2l-.1-.1v.1h.1zm0 15h.1l-.1-.1v.1zm0 1.6zm.1-6.7h-.1l.1.1v-.1zm0 3.3zm0 3.3v-.2h-.1l.1.2zm.1-5.9v.1h.1l-.1-.1zm.2 3.3v-.2l-.2.1-.1.1.1.1v.1l.2-.2zm0 2.7l-.1-.1v.1h.1zm.2-5.8l-.2-.1-.1.1v.1l.3-.1zm-.2.4zm.4 1.2v-.1l-.1-.1h-.2l.1.3.1.1.1-.2zm-.3.6h.1-.1zm0-5zm.2 4.8zm.3-7.2zm0 8.3zm.3-1.2l-.1.1.1.1h.1l-.1-.2zm0 1.2v.1-.1zm.3 0l-.1-.1h-.1l.1.1h.1zm-.1 1l-.1-.1v.1h.1zm.1-3.3l.2.2h.1l.1-.1-.2-.2h-.1l-.1.1zm.9 7.2zm.3-3.9zM56.3 33.3v.2l-.1.5v.7l-.1.3v.4l-.1.4-.6 1.2-.4.5-.5.6-.2.2v.1l-.7.4-.1.1-.9.5h-.5l-.3.1-.4.1-.9.1-.2-.1-.5.1H49l-.5-.1-.5-.2h-.3l-.3-.2-.6-.2-.2-.2-.6-.4-.7-.7-.1-.1h-.1l-.7-1.2V36l-.2-.4-.2-.8v-3.1l.1-.6.2-.3.4-.2h.5l.2.1H48l.1.1.2.2.1.6V33.7l.3 1.1.3.5.3.2v.1l.4.2.4.1h.7l.2-.1.3-.2.6-.6.1-.3V33.4l-.2-.9-.2-.6-.6-.7-.3-.3-.1-.2-.3-.3-.2-.2V30l-1.5-1.4-.5-.6-.8-.7-1-1.2-1-1.3-.2-.5-.2-.2-.1-.4-.2-.3-.2-.7-.1-.5v-.4l-.1-.4V20.1l.1-.1v-.9l.2-.9.1-.1.1-.4.1-.2.1-.3.2-.3h.1l.1-.2.5-.6.7-.6.3-.2 1-.4.6-.2.1-.1.7-.1h1.7l1 .2.6.2.6.3.2.2.4.2.2.1.1.2.3.2.3.3.1.2.3.4.4.8.3.7.1.5v3.6l-.1.3v.1l-.3.1H53.6l-.2.1H52.3l-.2-.2-.1-.1-.2-.3v-1.5l-.1-.2v-.8l-.1-.3-.3-.6-.2-.2-.5-.3-.4-.1-.5.1-.5.2-.4.4-.2.6v1l.1.5.2.6.7 1.1.3.4.3.3.2.2 1.6 1.6 1.7 1.7.4.6.5.5v.2l.2.2.3.5.2.4.6 1.5.2.6.1.8.1.7zm-12.1.5zm.7 2.1zm.5-18.6zm.2 1.9v-.1.1zm.4 1.1h-.1.1zm.2 1.6h-.1v.2l.1-.2zm1 16.1h.1-.1zm.2-14.5l.1-.1h-.1l-.1.1v.1h.1zm0 1.3h.1-.1zm.1 1.1l.1-.1-.1.1zm0-8.4l.1-.1-.1.1zm0 17.5v-.1.1zm.1 3zm.1-13.6zm.2 1.3h-.1.1zm.3-1.2v-.1.1zm0 1.3l.2.2h.1l-.1-.2h-.2zm.2 10.3l.1-.1-.1.1zm0-17.6l.1.1v-.1h-.1zm.3 5.4l-.2-.1-.1.1v.1h.3v-.1zm-.2.6zm.2 1.4h-.2v.1l.1.1h.1v-.2zm-.1-2.3l-.1.1h.1v-.1zm-.1 12.6l.1.1v-.1h-.1zm.1-12.1zm0 2.5zm.1 11.2h-.1.1zm0-12.3zm.2-1.1l.1-.1v-.1l-.2.1-.1.2.2-.1zm-.1 12.9h-.1l.1.1v-.1zm.1-19.5v.1-.1zm.1.4h-.1v.1h.1v-.1zm0 8.3v-.1.1zm0 11l-.1.1h.1v-.1zm.2-11.2l-.2.1h.1l.1-.1zm0 12.5l.1-.1h-.1l-.1.1h.1zm.1-20.9zm.3 8.3h-.2v.2h.1l.1-.2zm-.1 1.9h-.1.1zm.1-2.3l.1.1v-.2l-.1.1zm.2 1.1l-.2.1h.2v-.1zm0 .3zm0 .5zm.1-.7h.2v-.1h-.2v.1zm.1 1v-.1.1zm0 .8zm.1-1.1h.1l-.1-.1H50v.1h.1zm.1-.8l.1.1h.1l-.1-.1-.1-.1v.1zm0-.4h.1l-.1-.1v.1zm0 1.7h.1-.1zm.2-.5zm.2.1zm.1 10zm0-10.1v-.1h-.1l.1.1zm.1 1.2l.1-.1h-.1v.1zm.1-1.2zm.2 0h.1v-.1h-.1v.1zm0 .6l-.1.1.1-.1zm0 1.9l.1.1h.1l-.1-.1h-.1zm.2-2.3h-.1.1zm-.1-9.8v.1-.1zm.1 11h.2l.3-.2-.4.1-.1-.2h-.1l.1.3zm0-1h.1l.1-.1H51.2v.1zm.2-1.4l.1-.2v-.1h-.1l-.1.1.1.2h-.1.1zm0 1.9l-.1-.1v.1h.1zm0-11.2h-.1l.1.1v-.1zm.1-.6zm.1 11.8zm0-1.2l.2-.1v-.1h-.1l-.1.2zm.3 2h.1v-.1l-.1-.1-.1.1v.1h.1zm.2-2.2l-.2-.1v.1h.2zm-.1 2.7v.1-.1zm0 .5l.1.2.1-.1.1-.1H52.1v-.1.1zm.1-2.2h.2l.1-.1h-.3v.1zm0-.6zm.1 3.9l.1-.1h-.1l-.1.2h.1v-.1zm0-2.3l.2-.1V29l-.2.2zm.3 6.8zm0-7.3zm.1 7.7h-.1v.1l.1-.1zm-.1.4h.1-.1zm.1-1.6zm0-7.1l.1.1v-.1h-.1zm0 .9l.1.3v-.1l-.1-.2zm.3 4.2v-.1h-.1l-.1.1h.2zm0-3.2zm.2 3.4l-.1-.1v.1h.1zm0 3.3v-.1h-.1l.1.1zm.2-4.4l-.1-.1-.1-.1.2.3.1.1v-.2zm-.1 4.1l-.1-.1v.1h.1zm-.1-20.9v.1-.1zm.1 19.6V35v.1zm.3-1.1h-.1v.1l.1-.1zm.1-2.8l.2-.1.1-.1v-.1l-.3.1v.2zm.3-.7l.2-.1H54v.1zm.1 4l-.1-.1.1.1zM54 29v-.1.1zm.3 2.2H54v.1l.3.1v-.2zm-.1-13.5h-.1.1zm.1-.4l.1.1h.1v-.1h-.2zm.1 17.8l-.1-.1v.1h.1zm0-.3zm.1-12.3zm.1 9.4h-.1v.1h.1v-.1zm0 .4l.1-.1-.1.1zm.2 4.7h-.1l.1.1V37zm.1-4.8v-.1.1zm.3-1.6zM70.1 33.3v1.4l-.1.3v.4l-.1.3-.7 1.3-.4.5-.5.6-.2.2v.1l-.7.4-.1.1-.9.5h-.5l-.3.1-.4.1-.9.1-.2-.1-.5.1h-.8l-.5-.1-.5-.2h-.3l-.3-.2-.6-.2-.2-.2-.4-.2-.7-.7-.1-.1h-.1l-.7-1.2-.1-.6-.2-.4-.2-.8V33.1l-.1-.2v-1.2l.1-.6.2-.3.4-.2h.5l.2.1H61.8l.1.1.2.2.1.6V33.7l.3 1.1.3.5.3.2v.1l.4.2.4.1h.7l.2-.1.3-.2.6-.6.1-.3V33.4l-.2-.9-.2-.6-.4-.6-.3-.3-.1-.2-.3-.3-.3-.3-.1-.2-1.5-1.4-.5-.6-.8-.7-1-1.2-1-1.3-.2-.5-.2-.2-.1-.4-.2-.3-.2-.7-.1-.5v-.4l-.1-.4V20.1l.1-.1v-.9l.2-.9.1-.1.1-.4.1-.2.1-.3.2-.3h.1l.1-.2.5-.6.7-.6.3-.2 1-.4.6-.2.1-.1.7-.1h1.7l1 .2.6.2.6.3.2.2.4.2.2.1.1.2.3.2.3.3.1.2.3.4.4.8.3.7.1.5v3.6l-.1.3.1.1-.3.1H67.5l-.2.1H66.2l-.3-.2-.1-.1-.2-.3v-1.5l-.1-.2v-.8l-.1-.3-.3-.6-.1-.3-.5-.3-.4-.1-.5.1-.5.2-.4.4-.2.6v1l.1.5.2.6.7 1.1.3.4.3.3.2.2 1.6 1.6 1.7 1.7.4.6.5.5v.2l.2.2.3.5.2.4.6 1.5.2.9.1.8v.5zm-12 .5zm.7 2.1zm.4-18.6zm.2 1.9v-.1.1zm.4 1.1h-.1.1zm.3 1.6H60v.2l.1-.2zm1 16.1h.1-.1zm.2-14.5l.1-.1h-.1l-.1.1v.1h.1zm0 1.3h.1-.1zm.1 1.1l.1-.1-.1.1zm0-8.4l.1-.1-.1.1zm0 17.5v-.1.1zm.1 3zm.1-13.6zm.1 1.3h-.1.1zm.3-1.2v-.1.1zm0 1.3l.2.2h.1l-.1-.2H62zm.2 10.3l.1-.1-.1.1zm0-17.6l.1.1v-.1h-.1zm.4 5.4l-.2-.1-.1.1v.1h.3v-.1zm-.3.6zm.3 1.4h-.2v.1l.1.1h.1v-.2zm-.1-2.3l-.1.1h.1v-.1zm-.1 12.6l.1.1v-.1h-.1zm.1-12.1zm0 2.5zm0 11.2h-.1.1zm0-12.3zm.3-1.1l.1-.1-.1-.2-.2.1-.1.2.2-.1.1.1zm-.2 12.9h-.1l.1.1v-.1zm.1-19.5v.1-.1zm.2.4h-.1v.1h.1v-.1zm-.1 8.3v-.1.1zm.1 11l-.1.1h.1v-.1zm.2-11.2l-.2.1h.1l.1-.1zm0 12.5l.1-.1H63l.1.1zm0-20.9zm.4 8.3h-.2v.2h.1l.1-.2zm-.2 1.9h-.1.1zm.1-2.3l.1.1v-.2l-.1.1zm.3 1.1l-.2.1h.2v-.1zm-.1.3zm0 .5zm.2-.7h.2v-.1h-.2v.1zm.1 1v-.1l-.1-.1.1.2zm0 .8zm.1-1.1h.1l-.1-.2h-.1v.1l.1.1zm0-.8l.1.1h.1l-.1-.1-.1-.1v.1zm.1-.4h.1l-.1-.1v.1zm0 1.7h.1-.1zm.1-.5zm.2.1zm.1 10zm.1-10.1v-.1h-.1l.1.1zm0 1.2l.1-.1h-.1v.1zm.2-1.2zm.2 0h.1v-.1H65v.1zm0 .6l-.1.1.1-.1zm0 1.9l.1.1h.1l-.2-.2v.1zm.1-2.3H65h.1zm0-9.8v.1-.1zm0 11h.2l.3-.2-.4.1-.1-.2H65l.1.3zm.1-1h.1l.1-.1H65.1v.1zm.1-1.4l.1-.2v-.1h-.1l-.1.1.1.2h-.1.1zm.1 1.9l-.1-.1v.1h.1zm0-11.2h-.1l.1.1v-.1zm.1-.6zm0 11.8zm.1-1.2l.2-.1v-.1h-.1l-.1.2zm.2 2h.1v-.1l-.1-.1-.1.1v.1h.1zm.2-2.2l-.1-.1v.1h.1zm0 2.7v.1-.1zm0 .5l.1.2.1-.1.1-.1H66v-.1.1zm0-2.2h.2l.1-.1H66v.1zm.1-.6zm.1 3.9l.1-.1h-.1l-.1.2h.1v-.1zm0-2.3l.2-.1V29l-.2.2zm.2 6.8zm0-7.3zm.2 7.7h-.1v.1l.1-.1zm-.1.4h.1-.1zm.1-1.6zm-.1-7.1l.1.1v-.1h-.1zm.1.9l.1.3v-.1l-.1-.2zm.2 4.2v-.1h-.1l-.1.1h.2zm.1-3.2zm.2 3.4l-.1-.1v.1h.1zm-.1 3.3v-.1h-.1l.1.1zm.2-4.4l-.1-.1-.1-.1.2.3.1.1v-.2zm-.1 4.1l-.1-.1v.1h.1zM67 15.5v.1-.1zm.2 19.6V35v.1zm.2-1.1h-.1v.1l.1-.1zm.1-2.8l.2-.1.1-.1v-.1l-.3.1v.2zm.3-.7l.2-.1h-.2v.1zm.1 4l-.1-.1.1.1zm0-5.5v-.1.1zm.3 2.2l-.3-.1v.1l.3.1v-.1zm-.1-13.5H68h.1zm.1-.4l.1.1h.1v-.1h-.2zm.1 17.8l-.1-.1v.1h.1zm0-.3zm.1-12.3zm.1 9.4h-.1v.1h.1v-.1zm0 .4l.1-.1-.1.1zm.2 4.7h-.1l.1.1V37zm0-4.8v-.1.1zm.4-1.6zM76.5 36.4l.1.2v2.1l-.1.5-.2.2h-.9l-.2-.1h-2.7l-.2-.1-.1-.2-.1-.6v-6.2l-.1-.1v-.3l.1-.1V25.3l.1-.6v-.4l-.1-.4.1-.2V18l.1-.2V15.5l.1-.3.3-.1h2.2l.5-.1.7.1.3.1.2.2V17.2l.1.3-.1.9V21l-.2.1.1.1h.1l-.1.2v.4l.1.3-.1.1V32.3l-.1.4.1.3V36.4zm-4-5.1zm.6.9l.1.1v-.1h-.1zm.1-9.7h.1v-.1l-.1.1zm.1 13.2h-.1v.1l.1-.1zm0-12.1zm0-3.1l.1-.1h-.1v.1zm.2 7.1l-.1.1v.1h.1v-.2zm-.1 8.4l.2-.2h-.2v.2zm.1-6.5l-.1-.1v.1h.1zm-.1 5.7v.1h.1l-.1-.1zm0-14.9h.2l.1.1h.1v-.1l-.3-.2-.1.2zm.1 4.2v-.1.1zm.1 9.4l-.1.1.1-.1zm-.1.7v.1l.1.1.2-.2h-.3zm.1-13.6zm0-2v.1h.1l-.1-.1zm.1 2.8h-.1v.1l.1-.1zm-.1 5.8l.1-.1-.1.1zm.2 4.4l-.2.1.3-.1h-.1zm-.1-.5v-.2l-.1.2h.1zm0 1.7zm0 2.6l-.1.1.1.1h.1v-.2h-.1zm.3-14.6l-.1-.1v.1l-.1.1.2-.1zm-.1 8.6h-.2v.1l.2-.1zm0-8.8v-.2l-.1-.1v.3h.1zm0 12.6l.1-.1-.1-.1h-.2v.1h.2zm0-5.2zm-.1 5.7h.2l-.1-.1-.1.1zm.1 2.5zm0-5.9l-.1-.2v.1l.1.1zm.1 2.4l.1-.1-.1.1zm.1-.3h.1l-.2-.3h-.1v.1l.2.2zm-.1-3.5zm0-1.5h.1-.1zm.3 1.9v-.3h-.1l-.1.2.2.1zm-.1-9.8h.1-.1zm0 11v.1h.1v-.1h-.1zm0 4.1h.1l-.1-.1v.1zm0-16.5h.1-.1zm0 .9v.1l.2.2h.1l-.1-.1h.2v-.1l.3-.1.3.1h.2l.2-.1v-.1h-.3l-.3-.1v.1h-.6l-.2.1zm.1 1.6v.1-.1zm-.1 12.8l.2.2h.1v-.1l-.3-.1zm.2-8.8l-.1-.1v.1h.1zm-.1 13.1l-.1-.1v.1h.1zm.1-9.6v-.2l-.1.1v.1h.1zm0 3.7zm-.1 2.6l.2.1-.2-.1zm.1-2.3l.3.1V32.3l-.2.1-.1.1zm.1 2.6l-.1-.1v.1h.1zm0-8.6l-.1.1h.2l-.1-.1zm.1 3.7l-.2-.1v.2l.1.1h.1v-.2zm-.1-8.2l.1.1-.1-.1zm0 2v-.1.1zm0 7.5l.1.1v-.1h-.1zm0 1.4l.1.1h.1v-.1h-.2zm.1.8v-.1h-.1v.1h.1zm.1.4V34h-.1v.1h.1zm-.1 3.7h-.1.1zm0-18.3zm.1 3.3l-.1.1.1-.1zM75 25l.2-.1H75l-.4-.1v.1l.4.1zm-.3-1.6zm.1 6v-.1l-.1.1.1.1v-.1zm-.1 7.1zm.3-2.2l-.1-.1h-.2v.1l.3.1v-.1zm-.1-3.4h-.2l.1.1h.1v-.1zm.1-12.3h-.1l-.1.1h.2v-.1zm0-1.4l-.1-.1v.1h.1zm0 19.1h-.1.1zm-.1-17zM75 21h-.1.1zm-.1 7.7zm.1 4.9l-.1-.1v.1h.1zm0 .4l.1-.2H75l-.1.1v.2l.1-.1zm.1-9.5l-.1-.2h-.1v.1h.2zM74.9 36l.2.1-.1-.1h-.1zm.1-11.1zm.4-.6H75l.4.1v-.1zM75 27v.1h.1V27H75zm.1 5.2l.1-.1h-.1v.1zm0-.7zm.4-14.2h-.4.4zm-.3 15.3zm-.1 5h.1-.1zm.3-14.5l-.1-.1v.1h.1zM75.3 37l.2-.1h-.1l-.1.1zm.2-4.8l.1-.5-.1-.1-.1.1h-.1l.1.1.1.4zm-.1-15.5l.1.2h.1v-.2h-.2zm.2 5.1h-.1l-.1.2h.1l.1-.2zm-.2.6l.1-.1-.1.1zm.1-7l-.1.1v.1l.1-.2zm.1 15.2l-.1-.1h-.1v.1h.2zm-.1 3zm.2-13.6l-.2.1.2-.1zm-.2 12.7l.1-.1-.1.1zm.1.3h-.1.1zm0-10.1h.1-.1zm.2 1.4v-.1h-.1l.1.1zm-.1 3.2l.1.2.1-.2h-.2zm.2-.7h-.1.1zM76 32l-.2-.1v.1h.2zm-.1 1l-.1.2h.2V33h-.1zm0-10.8v.1-.1zm.2 13.6H76l-.1.1h.1l.1-.1zm-.2-4.8v.1h.1v-.2l-.1.1zm.3-8.8l.1-.1h-.1v.1zm.1 1zm.2.6l-.1-.2v.2h.1z"/>
  <g>
    <path class="st2" d="M38.7 78.5c1.9 0 3.9 0 5.8-.1h1.4c-.1-4.9 0-9.8.2-14.7-2.9.1-5.8.2-8.6.4-2.3 4.4-3.7 9.3-4 14.4 1.6-.1 3.4 0 5.2 0zM44.5 94.5h1.9l-.1-1.9-.2-5.8-.1-5.1-1.5-.1-5.8-.3c-1.8-.1-3.6-.2-5.3-.3 0 2.8.3 5.6 1 8.3.4 1.8 1 3.5 1.7 5.2.9 0 1.8 0 2.7.1 1.8-.1 3.8-.1 5.7-.1zM32.9 94.4h.3c-.6-1.4-1.1-2.9-1.6-4.3-.9-3-1.6-6.1-1.8-9.2l-2.8-.2c-3.2-.2-6.4-.4-9.6-.7-.1 4.8 1 9.5 2.9 13.6 2.3.2 4.5.3 6.8.5l5.8.3zM43.3 55.8c-1.3 1.3-2.4 2.8-3.5 4.3h6.4c0-.8.1-1.6.1-2.5.1-1.7.2-3.4.4-5.1-1.2 1-2.3 2.1-3.4 3.3zM66.7 63.6c-1.8-.1-3.7-.1-5.5-.2 1 2.3 1.9 4.6 2.5 7 .6 2.4 1 4.8 1.2 7.3l8.6-.3c2-.1 4-.1 5.9-.2-.5-4.8-2.1-9.3-4.5-13.2-.8-.1-1.6-.1-2.4-.2l-5.8-.2zM55.1 63.5l-5.1.1c-.2 4.9-.3 9.8-.5 14.7h.8l11.2-.4c0-2.3-.2-4.5-.6-6.8-.5-2.6-1.3-5.2-2.4-7.7-1.1.1-2.3.1-3.4.1zM50.4 52.2c-.1 1.9-.1 3.7-.2 5.6 0 .8 0 1.6-.1 2.4l5 .2 1.8.1c-1.7-3.1-3.9-5.9-6.5-8.3zM21.5 65c-2.2 3.8-3.6 8.2-4 12.8 3.2.2 6.4.3 9.6.4l2.7.1c0-2.7.3-5.4 1-8 .5-2.1 1.3-4.1 2.2-6.1-2.3.1-4.5.2-6.8.4-1.6.2-3.1.3-4.7.4zM47 109.5c-.1-1.8-.2-3.6-.2-5.4l-.2-6.5-2-.1-5.8-.3c-.4 0-.8-.1-1.3-.1l.3.6c2.2 4.6 5.4 8.5 9.2 11.8zM41.3 106.9c-2.2-2.4-4.1-5-5.8-7.9-.4-.7-.7-1.3-1.1-2-.6 0-1.1-.1-1.7-.1l-5.8-.4c-1.8-.2-3.6-.3-5.4-.5 4.9 8.6 13.9 14.6 24.5 15.4-1.6-1.4-3.2-2.9-4.7-4.5zM73.7 97.2c-4.2.4-8.4.6-12.6.7-2.6 5.4-6.5 10.2-11.3 13.6 10.4-.4 19.6-6 25-14.4-.4.1-.8.1-1.1.1zM50.5 49.5c1.7 1.5 3.3 3.1 4.8 4.8 1.7 2 3.2 4.1 4.5 6.4l1.3.1 5.8.4 5.8.5h.5C68 54.9 60 50.3 50.8 49.6c-.2-.1-.3-.1-.3-.1zM25.9 60.8c3.1-.3 6.2-.5 9.3-.6l.1-.2c.2-.3.5-.7.7-1l.7-1c.3-.3.5-.6.8-1l.8-1 .9-.9.9-.9c.3-.3.6-.6.9-.8 1.7-1.5 3.5-2.8 5.4-4-8.8.6-16.8 5-22.1 11.6.5-.1 1-.1 1.6-.2zM50.3 97.8h-1.2v.5l.1 5.8c0 1.6.1 3.3.1 4.9 3-3.4 5.6-7.1 7.5-11-2.2-.1-4.4-.1-6.5-.2zM76.8 93.2c1.4-3.2 2.4-6.7 2.6-10.5 0-.6.1-1.2.1-1.7-2 .2-3.9.3-5.9.4-2.9.2-5.8.3-8.7.4-.1 4.1-.9 8.2-2.2 12.1 3.6-.2 7.1-.3 10.7-.5 1.2-.1 2.3-.2 3.4-.2zM50.3 81.8h-.9l-.2 5c0 1.9-.1 3.9-.1 5.8v1.9h1.2c2.7-.1 5.4-.2 8.2-.3 1.5-3.9 2.5-8 2.9-12.2-3.8-.1-7.4-.1-11.1-.2z"/>
  </g>
</svg>
